<svg width="128" height="200" viewBox="0 0 128 200" fill="none" xmlns="http://www.w3.org/2000/svg">
<rect width="128" height="129.032" fill="#001405"/>
<g clip-path="url(#clip0_2209_42659)">
<path d="M49.7773 84.1661V102.211C49.7773 105.152 52.1406 107.527 55.0504 107.527H72.9488C75.8656 107.527 78.2218 105.145 78.2218 102.211V93.1887C78.2218 89.2248 79.8115 85.6401 82.3877 83.05C84.9639 80.4527 88.5194 78.8499 92.444 78.8499H101.393C104.31 78.8499 106.666 76.4673 106.666 73.5338V55.4959C106.666 52.5552 104.303 50.1797 101.393 50.1797H83.5019C80.5851 50.1797 78.2289 52.5623 78.2289 55.4959V64.9549C78.2289 72.6322 72.0546 78.8499 64.4467 78.8499H55.0645C52.1477 78.8499 49.7915 81.2326 49.7915 84.1661H49.7773Z" fill="#ECEFEC"/>
<path d="M21.333 55.4952V73.538C21.333 76.4783 23.6963 78.8535 26.606 78.8535H44.5044C47.4213 78.8535 49.7775 76.4712 49.7775 73.538V64.5166C49.7775 60.5532 51.3672 56.969 53.9433 54.3792C56.5195 51.7822 60.0751 50.1797 63.9997 50.1797H72.9489C75.8657 50.1797 78.2219 47.7974 78.2219 44.8642V26.8214C78.2219 23.881 75.8586 21.5059 72.9489 21.5059H55.0576C52.1407 21.5059 49.7845 23.8882 49.7845 26.8214V36.2792C49.7845 43.9556 43.6102 50.1725 36.0023 50.1725H26.606C23.6892 50.1725 21.333 52.5549 21.333 55.4881V55.4952Z" fill="#ECEFEC"/>
</g>
<g clip-path="url(#clip1_2209_42659)">
<path d="M73.5751 145.238V157.252H82.334V163.803H73.5751V187.934C73.5751 190.173 74.028 191.651 74.9423 192.377C75.8567 193.103 77.5059 193.466 79.8815 193.466H82.334V200.008H79.5483C75.8994 200.008 73.0709 199.714 71.0542 199.135C69.0375 198.539 67.5507 197.407 66.6107 195.73C66.2518 195.091 65.9527 194.339 65.7391 193.466C65.3802 192.074 65.2007 190.406 65.2007 188.435V163.795H59.0566V157.243H65.2007V148.194L73.5751 145.238Z" fill="#001405"/>
<path d="M119.702 139.785H127.991V199.836H119.702V139.785Z" fill="#001405"/>
<path d="M96.8178 173V157.253H88.4434V199.837H96.8178V183.562C96.869 178.809 97.4928 175.023 98.6806 172.197C99.8684 169.37 101.791 167.244 104.44 165.818C107.098 164.392 110.661 163.537 115.139 163.26V155.879C111.328 155.879 108.226 156.441 105.85 157.556C103.475 158.671 101.595 160.477 100.21 162.966C98.8259 165.455 97.809 168.791 97.1425 172.992H96.8092L96.8178 173Z" fill="#001405"/>
<path d="M55.2363 161.367C55.2791 161.652 55.3218 161.955 55.356 162.257C55.3731 162.37 55.3816 162.482 55.3987 162.594" fill="#001405"/>
<path d="M45.9224 175.826H54.9121C54.8437 176.215 54.7839 176.621 54.7412 177.027C54.7155 177.226 54.6899 177.425 54.6728 177.624C54.6044 178.168 54.5275 178.678 54.4421 179.145C53.8012 182.723 52.5621 185.947 50.7334 188.834C48.5458 192.282 45.5806 194.979 41.8463 196.915C38.1206 198.851 33.7881 199.827 28.8746 199.827H27.2595C21.8503 199.827 17.0735 198.591 12.9376 196.137C8.80166 193.674 5.61426 190.173 3.36685 185.636C1.11943 181.098 0 175.766 0 169.638C0 163.51 1.11943 158.203 3.36685 153.718C5.61426 149.24 8.78457 145.792 12.9034 143.381C17.0051 140.995 21.7905 139.785 27.251 139.785H28.866C33.7881 139.785 38.1291 140.753 41.889 142.698C45.649 144.642 48.6227 147.339 50.8103 150.779C52.8014 153.908 54.0832 157.425 54.6728 161.366C54.7155 161.652 54.7583 161.954 54.7924 162.257C54.8095 162.369 54.8181 162.481 54.8352 162.594C54.8864 162.983 54.9206 163.389 54.9548 163.795H46.0164C45.9652 163.389 45.9053 162.983 45.8455 162.594H45.837C45.8284 162.525 45.8199 162.447 45.8028 162.378L45.2388 159.768C45.2388 159.768 45.2388 159.742 45.2303 159.716C44.333 156.509 42.735 153.804 40.4449 151.6C37.4968 148.756 33.6428 147.339 28.8831 147.339H27.268C23.6448 147.339 20.4403 148.229 17.6546 150.01C14.8774 151.79 12.7239 154.357 11.2114 157.719C9.69037 161.09 8.93838 165.057 8.93838 169.655C8.93838 174.253 9.69037 178.255 11.2114 181.677C12.7239 185.091 14.8774 187.719 17.6546 189.551C20.4403 191.383 23.6448 192.299 27.268 192.299H28.8831C33.5317 192.299 37.3344 190.865 40.2825 187.995C41.7438 186.569 42.9401 184.944 43.8545 183.121C43.8545 183.121 43.8545 183.121 43.8545 183.112C44.2903 182.239 44.6663 181.323 44.9654 180.364C45.0166 180.217 45.0508 180.078 45.0935 179.931C45.3584 179.05 45.5721 178.116 45.7259 177.148C45.7259 177.122 45.7344 177.088 45.743 177.062H45.8113C45.8455 176.656 45.8797 176.25 45.931 175.861L45.9224 175.826Z" fill="#001405"/>
</g>
<defs>
<clipPath id="clip0_2209_42659">
<rect width="85.3333" height="86.0215" fill="white" transform="translate(21.333 21.5059)"/>
</clipPath>
<clipPath id="clip1_2209_42659">
<rect width="128" height="60.2151" fill="white" transform="translate(0 139.785)"/>
</clipPath>
</defs>
</svg>
