<svg width="282" height="93" viewBox="0 0 282 93" fill="none" xmlns="http://www.w3.org/2000/svg">
<g clip-path="url(#clip0_2209_42656)">
<path d="M30.9912 67.7436V87.2525C30.9912 90.4318 33.5661 93 36.7363 93H56.2373C59.4153 93 61.9825 90.4241 61.9825 87.2525V77.4981C61.9825 73.2126 63.7145 69.3371 66.5214 66.5369C69.3282 63.7289 73.2021 61.9961 77.4781 61.9961H87.2286C90.4066 61.9961 92.9738 59.4202 92.9738 56.2487V36.7475C92.9738 33.5682 90.3989 31 87.2286 31H67.7354C64.5574 31 61.9902 33.5759 61.9902 36.7475V46.9738C61.9902 55.274 55.2631 61.9961 46.974 61.9961H36.7518C33.5738 61.9961 31.0067 64.5721 31.0067 67.7436H30.9912Z" fill="#001405"/>
<path d="M0 36.7468V56.2532C0 59.4321 2.57487 62 5.74514 62H25.2461C28.4241 62 30.9913 59.4244 30.9913 56.2532V46.5C30.9913 42.2151 32.7233 38.3401 35.5302 35.5402C38.337 32.7325 42.2109 31 46.4869 31H56.2374C59.4154 31 61.9825 28.4244 61.9825 25.2532V5.74676C61.9825 2.56786 59.4077 0 56.2374 0H36.7441C33.5661 0 30.999 2.5756 30.999 5.74676V15.9718C30.999 24.271 24.2719 30.9923 15.9828 30.9923H5.74514C2.56714 30.9923 0 33.5679 0 36.739V36.7468Z" fill="#001405"/>
</g>
<g clip-path="url(#clip1_2209_42656)">
<path d="M209.22 14.0273V30.0015H220.933V38.7126H209.22V70.7988C209.22 73.7753 209.825 75.7405 211.048 76.7058C212.271 77.6712 214.476 78.1539 217.653 78.1539H220.933V86.8535H217.207C212.328 86.8535 208.546 86.4627 205.849 85.6928C203.152 84.8998 201.163 83.3943 199.906 81.1648C199.427 80.3144 199.027 79.3146 198.741 78.1539C198.261 76.3036 198.021 74.0856 198.021 71.4654V38.7011H189.805V29.99H198.021V17.9577L209.22 14.0273Z" fill="#001405"/>
<path d="M270.904 6.77539H281.989V86.6233H270.904V6.77539Z" fill="#001405"/>
<path d="M240.302 50.9399V30.0011H229.104V86.6232H240.302V64.9834C240.371 58.6627 241.205 53.6291 242.793 49.8711C244.382 46.1132 246.953 43.2861 250.496 41.3899C254.049 39.4937 258.815 38.3559 264.803 37.9882V28.1738C259.706 28.1738 255.558 28.9208 252.381 30.4033C249.204 31.8858 246.69 34.2877 244.839 37.5974C242.988 40.9072 241.628 45.3432 240.737 50.9284H240.291L240.302 50.9399Z" fill="#001405"/>
<path d="M184.696 35.4707C184.753 35.8499 184.811 36.2522 184.856 36.6544C184.879 36.8038 184.891 36.9532 184.913 37.1026" fill="#001405"/>
<path d="M172.241 54.6979H184.262C184.171 55.2151 184.091 55.7552 184.034 56.2953C183.999 56.5596 183.965 56.824 183.942 57.0883C183.851 57.8123 183.748 58.4903 183.634 59.1109C182.777 63.8687 181.12 68.1553 178.674 71.9937C175.749 76.5791 171.784 80.1646 166.79 82.7389C161.807 85.3131 156.014 86.6118 149.443 86.6118H147.283C140.05 86.6118 133.662 84.9684 128.131 81.7046C122.6 78.4293 118.338 73.775 115.332 67.7416C112.327 61.7082 110.83 54.6175 110.83 46.4695C110.83 38.3215 112.327 31.2653 115.332 25.3008C118.338 19.3479 122.577 14.7625 128.085 11.5561C133.571 8.3843 139.97 6.77539 147.272 6.77539H149.432C156.014 6.77539 161.819 8.06252 166.847 10.6483C171.875 13.234 175.852 16.8196 178.777 21.3935C181.44 25.5537 183.154 30.231 183.942 35.4714C183.999 35.8507 184.057 36.2529 184.102 36.6551C184.125 36.8045 184.137 36.9539 184.159 37.1033C184.228 37.6205 184.274 38.1606 184.319 38.7007H172.366C172.298 38.1606 172.218 37.6205 172.138 37.1033H172.126C172.115 37.0114 172.104 36.908 172.081 36.816L171.326 33.3454C171.326 33.3454 171.326 33.3109 171.315 33.2764C170.115 29.0128 167.978 25.4158 164.916 22.4852C160.973 18.7043 155.82 16.8196 149.455 16.8196H147.295C142.45 16.8196 138.164 18.0033 134.439 20.3707C130.725 22.7381 127.845 26.1513 125.823 30.6217C123.789 35.1037 122.783 40.3786 122.783 46.4925C122.783 52.6063 123.789 57.9272 125.823 62.4781C127.845 67.0176 130.725 70.5112 134.439 72.9475C138.164 75.3839 142.45 76.6021 147.295 76.6021H149.455C155.671 76.6021 160.756 74.6943 164.699 70.8789C166.653 68.9827 168.253 66.8222 169.475 64.3973C169.475 64.3973 169.475 64.3973 169.475 64.3858C170.058 63.2251 170.561 62.007 170.961 60.7313C171.029 60.5359 171.075 60.3521 171.132 60.1567C171.486 58.9845 171.772 57.7433 171.978 56.4562C171.978 56.4217 171.989 56.3758 172.001 56.3413H172.092C172.138 55.8012 172.184 55.261 172.252 54.7439L172.241 54.6979Z" fill="#001405"/>
</g>
<defs>
<clipPath id="clip0_2209_42656">
<rect width="92.9738" height="93" fill="white"/>
</clipPath>
<clipPath id="clip1_2209_42656">
<rect width="171.17" height="80.0662" fill="white" transform="translate(110.83 6.77539)"/>
</clipPath>
</defs>
</svg>
