<svg width="290" height="96" viewBox="0 0 290 96" fill="none" xmlns="http://www.w3.org/2000/svg">
<path fill-rule="evenodd" clip-rule="evenodd" d="M0 0.207031H94.9874V95.1944H0V0.207031ZM36.9398 62.1658V75.4497C36.9398 77.6145 38.6936 79.3632 40.8528 79.3632H54.1351C56.2996 79.3632 58.0481 77.6092 58.0481 75.4497V68.8077C58.0481 65.8897 59.2278 63.2508 61.1396 61.3441C63.0513 59.4321 65.6899 58.2522 68.6023 58.2522H75.2434C77.4079 58.2522 79.1564 56.4983 79.1564 54.3387V41.0601C79.1564 38.8953 77.4027 37.1466 75.2434 37.1466H61.9664C59.8019 37.1466 58.0534 38.9005 58.0534 41.0601V48.0233C58.0534 53.675 53.4715 58.2522 47.8258 58.2522H40.8634C38.6988 58.2522 36.9503 60.0062 36.9503 62.1658H36.9398ZM15.8315 54.3418V41.0596V41.0543C15.8315 38.8951 17.58 37.1413 19.7445 37.1413H26.7174C32.3632 37.1413 36.9451 32.5647 36.9451 26.9137V19.9513C36.9451 17.792 38.6936 16.0383 40.8581 16.0383H54.1351C56.2944 16.0383 58.0481 17.7867 58.0481 19.9513V33.2335C58.0481 35.3928 56.2996 37.1466 54.1351 37.1466H47.494C44.5816 37.1466 41.943 38.3263 40.0313 40.238C38.1195 42.1445 36.9398 44.7831 36.9398 47.7007V54.3418C36.9398 56.5011 35.1913 58.2549 33.0268 58.2549H19.7445C17.5853 58.2549 15.8315 56.5064 15.8315 54.3418Z" fill="#001405"/>
<g clip-path="url(#clip0_2209_42660)">
<path d="M213.436 13.8145V30.5712H225.752V39.7091H213.436V73.3673C213.436 76.4896 214.073 78.5511 215.359 79.5637C216.644 80.5764 218.963 81.0827 222.304 81.0827H225.752V90.2085H221.835C216.704 90.2085 212.727 89.7986 209.892 88.9909C207.056 88.1591 204.966 86.5799 203.644 84.2412C203.139 83.3491 202.719 82.3003 202.418 81.0827C201.914 79.1418 201.661 76.8151 201.661 74.0665V39.6971H193.022V30.5592H201.661V17.9373L213.436 13.8145Z" fill="#001405"/>
<path d="M278.295 6.20703H289.95V89.9668H278.295V6.20703Z" fill="#001405"/>
<path d="M246.118 52.5357V30.5711H234.343V89.9672H246.118V67.2672C246.19 60.6368 247.067 55.3566 248.737 51.4146C250.407 47.4725 253.111 44.5069 256.835 42.5178C260.572 40.5287 265.582 39.3352 271.878 38.9495V28.6543C266.52 28.6543 262.158 29.4379 258.818 30.993C255.478 32.5481 252.834 35.0677 250.888 38.5396C248.941 42.0115 247.511 46.6648 246.574 52.5237H246.106L246.118 52.5357Z" fill="#001405"/>
<path d="M187.651 36.3086C187.711 36.7064 187.772 37.1284 187.82 37.5503C187.844 37.707 187.856 37.8637 187.88 38.0204" fill="#001405"/>
<path d="M174.555 56.4774H187.195C187.099 57.0199 187.015 57.5865 186.955 58.1531C186.919 58.4303 186.883 58.7076 186.859 58.9849C186.763 59.7443 186.655 60.4556 186.534 61.1066C185.633 66.0975 183.891 70.5941 181.32 74.6205C178.244 79.4306 174.075 83.1918 168.824 85.8922C163.585 88.5925 157.494 89.9548 150.585 89.9548H148.314C140.708 89.9548 133.992 88.2309 128.176 84.8072C122.361 81.3714 117.879 76.4891 114.719 70.1601C111.559 63.8311 109.985 56.393 109.985 47.8458C109.985 39.2987 111.559 31.8967 114.719 25.6401C117.879 19.3955 122.337 14.5854 128.128 11.222C133.896 7.89476 140.624 6.20703 148.302 6.20703H150.573C157.494 6.20703 163.597 7.55722 168.884 10.2696C174.171 12.9821 178.352 16.7433 181.428 21.5413C184.227 25.9053 186.03 30.8118 186.859 36.309C186.919 36.7068 186.979 37.1287 187.027 37.5507C187.051 37.7074 187.063 37.8641 187.087 38.0208C187.159 38.5633 187.207 39.1299 187.255 39.6965H174.687C174.615 39.1299 174.531 38.5633 174.447 38.0208H174.435C174.423 37.9244 174.411 37.8159 174.387 37.7194L173.594 34.0787C173.594 34.0787 173.594 34.0426 173.582 34.0064C172.32 29.5339 170.074 25.7606 166.853 22.6865C162.708 18.7204 157.289 16.7433 150.597 16.7433H148.326C143.231 16.7433 138.726 17.985 134.809 20.4684C130.904 22.9518 127.876 26.5322 125.749 31.2217C123.611 35.9232 122.553 41.4566 122.553 47.8699C122.553 54.2833 123.611 59.8649 125.749 64.6388C127.876 69.4006 130.904 73.0654 134.809 75.6211C138.726 78.1768 143.231 79.4547 148.326 79.4547H150.597C157.133 79.4547 162.48 77.4535 166.625 73.4512C168.68 71.462 170.362 69.1957 171.648 66.652C171.648 66.652 171.648 66.652 171.648 66.6399C172.26 65.4224 172.789 64.1445 173.209 62.8064C173.282 62.6014 173.33 62.4086 173.39 62.2036C173.762 60.974 174.063 59.672 174.279 58.3218C174.279 58.2857 174.291 58.2374 174.303 58.2013H174.399C174.447 57.6347 174.495 57.0681 174.567 56.5256L174.555 56.4774Z" fill="#001405"/>
</g>
<defs>
<clipPath id="clip0_2209_42660">
<rect width="179.976" height="83.9889" fill="white" transform="translate(109.985 6.20703)"/>
</clipPath>
</defs>
</svg>
