<svg width="110" height="110" viewBox="0 0 110 110" fill="none" xmlns="http://www.w3.org/2000/svg">
<path fill-rule="evenodd" clip-rule="evenodd" d="M107.877 93.0896C107.028 100.259 100.246 107.024 93.0896 107.877C67.6993 110.709 42.3048 110.709 16.9104 107.877C9.74553 107.028 2.98467 100.254 2.1272 93.0896C-0.709066 67.6993 -0.709066 42.3048 2.1272 16.9104C2.9723 9.74965 9.74553 2.97643 16.9104 2.1272C42.3048 -0.709066 67.6993 -0.709066 93.0896 2.1272C100.25 2.97643 107.024 9.74965 107.877 16.9104C110.709 42.3048 110.709 67.6993 107.877 93.0896ZM43.3767 71.2699V86.6107C43.3767 89.1107 45.402 91.1302 47.8957 91.1302H63.2345C65.7342 91.1302 67.7535 89.1047 67.7535 86.6107V78.9403C67.7535 75.5705 69.1158 72.523 71.3236 70.321C73.5314 68.113 76.5785 66.7504 79.9418 66.7504H87.6113C90.111 66.7504 92.1302 64.7249 92.1302 62.2309V46.8962C92.1302 44.3962 90.1049 42.3767 87.6113 42.3767H72.2785C69.7788 42.3767 67.7596 44.4023 67.7596 46.8962V54.9377C67.7596 61.4645 62.4682 66.7504 55.9483 66.7504H47.9078C45.4081 66.7504 43.3889 68.776 43.3889 71.2699H43.3767ZM19 62.2345V46.8957V46.8896C19 44.396 21.0192 42.3707 23.5189 42.3707H31.5715C38.0915 42.3707 43.3828 37.0854 43.3828 30.5594V22.5189C43.3828 20.0253 45.402 18 47.9018 18H63.2345C65.7282 18 67.7535 20.0192 67.7535 22.5189V37.8578C67.7535 40.3514 65.7342 42.3767 63.2345 42.3767H55.5651C52.2017 42.3767 49.1547 43.7391 46.9469 45.9469C44.7391 48.1486 43.3767 51.1957 43.3767 54.5651V62.2345C43.3767 64.7282 41.3575 66.7535 38.8578 66.7535H23.5189C21.0253 66.7535 19 64.7342 19 62.2345Z" fill="#001405"/>
</svg>
